<mxfile host="app.diagrams.net" modified="2023-03-29T10:20:58.589Z" agent="Mozilla/5.0 (Macintosh; Intel Mac OS X 10_15_7) AppleWebKit/605.1.15 (KHTML, like Gecko) Version/16.3 Safari/605.1.15" etag="qNkHG3htYyVssuGXielD" version="21.1.1" type="github">
  <diagram name="Page-1" id="-1m2vdFpon-dfCzXbzR7">
    <mxGraphModel dx="2293" dy="987" grid="1" gridSize="10" guides="1" tooltips="1" connect="1" arrows="1" fold="1" page="1" pageScale="1" pageWidth="827" pageHeight="1169" math="0" shadow="0">
      <root>
        <mxCell id="0" />
        <mxCell id="1" parent="0" />
        <mxCell id="pV1WfuwIaBETCZBWaG9R-31" style="edgeStyle=orthogonalEdgeStyle;rounded=0;orthogonalLoop=1;jettySize=auto;html=1;entryX=0.5;entryY=0;entryDx=0;entryDy=0;" edge="1" parent="1" source="pV1WfuwIaBETCZBWaG9R-2" target="pV1WfuwIaBETCZBWaG9R-7">
          <mxGeometry relative="1" as="geometry" />
        </mxCell>
        <mxCell id="pV1WfuwIaBETCZBWaG9R-2" value="&lt;b&gt;Start&lt;/b&gt;&amp;nbsp;" style="strokeWidth=2;html=1;shape=mxgraph.flowchart.start_1;whiteSpace=wrap;fillColor=#f8cecc;strokeColor=#b85450;" vertex="1" parent="1">
          <mxGeometry x="-50" y="60" width="100" height="60" as="geometry" />
        </mxCell>
        <mxCell id="pV1WfuwIaBETCZBWaG9R-28" style="edgeStyle=orthogonalEdgeStyle;rounded=0;orthogonalLoop=1;jettySize=auto;html=1;" edge="1" parent="1" source="pV1WfuwIaBETCZBWaG9R-3" target="pV1WfuwIaBETCZBWaG9R-9">
          <mxGeometry relative="1" as="geometry" />
        </mxCell>
        <mxCell id="pV1WfuwIaBETCZBWaG9R-3" value="&lt;b&gt;Input&lt;/b&gt; : &lt;b&gt;va_list ap,&lt;br&gt;va_start(ap, format)&lt;br&gt;&lt;/b&gt;" style="shape=parallelogram;html=1;strokeWidth=2;perimeter=parallelogramPerimeter;whiteSpace=wrap;rounded=1;arcSize=12;size=0.23;fillColor=#e1d5e7;strokeColor=#9673a6;" vertex="1" parent="1">
          <mxGeometry x="-83.75" y="400" width="167.5" height="60" as="geometry" />
        </mxCell>
        <mxCell id="pV1WfuwIaBETCZBWaG9R-4" value="" style="endArrow=none;dashed=1;html=1;dashPattern=1 3;strokeWidth=2;rounded=0;" edge="1" parent="1">
          <mxGeometry width="50" height="50" relative="1" as="geometry">
            <mxPoint x="60" y="90" as="sourcePoint" />
            <mxPoint x="110" y="40" as="targetPoint" />
            <Array as="points">
              <mxPoint x="70" y="90" />
              <mxPoint x="90" y="40" />
            </Array>
          </mxGeometry>
        </mxCell>
        <mxCell id="pV1WfuwIaBETCZBWaG9R-5" value="" style="endArrow=none;dashed=1;html=1;dashPattern=1 3;strokeWidth=2;rounded=0;" edge="1" parent="1">
          <mxGeometry width="50" height="50" relative="1" as="geometry">
            <mxPoint x="120" y="50" as="sourcePoint" />
            <mxPoint x="120" y="20" as="targetPoint" />
            <Array as="points">
              <mxPoint x="110" y="50" />
              <mxPoint x="110" y="30" />
              <mxPoint x="110" y="20" />
            </Array>
          </mxGeometry>
        </mxCell>
        <mxCell id="pV1WfuwIaBETCZBWaG9R-6" value="&lt;font style=&quot;font-size: 9px;&quot;&gt;&lt;b&gt;Function&lt;/b&gt;&amp;nbsp;int _printf(const char *format, ...)&lt;/font&gt;" style="text;html=1;align=center;verticalAlign=middle;resizable=0;points=[];autosize=1;strokeColor=none;fillColor=none;" vertex="1" parent="1">
          <mxGeometry x="110" y="20" width="190" height="30" as="geometry" />
        </mxCell>
        <mxCell id="pV1WfuwIaBETCZBWaG9R-30" style="edgeStyle=orthogonalEdgeStyle;rounded=0;orthogonalLoop=1;jettySize=auto;html=1;" edge="1" parent="1" source="pV1WfuwIaBETCZBWaG9R-7" target="pV1WfuwIaBETCZBWaG9R-8">
          <mxGeometry relative="1" as="geometry" />
        </mxCell>
        <mxCell id="pV1WfuwIaBETCZBWaG9R-7" value="&lt;b&gt;Initialize&lt;/b&gt; : &amp;nbsp;&lt;b&gt;print_t spec[ ]&lt;/b&gt; with pairs of format specifiers and associated function" style="rounded=0;whiteSpace=wrap;html=1;fillColor=#dae8fc;strokeColor=#6c8ebf;" vertex="1" parent="1">
          <mxGeometry x="-60" y="180" width="120" height="60" as="geometry" />
        </mxCell>
        <mxCell id="pV1WfuwIaBETCZBWaG9R-29" style="edgeStyle=orthogonalEdgeStyle;rounded=0;orthogonalLoop=1;jettySize=auto;html=1;exitX=0.5;exitY=1;exitDx=0;exitDy=0;" edge="1" parent="1" source="pV1WfuwIaBETCZBWaG9R-8" target="pV1WfuwIaBETCZBWaG9R-3">
          <mxGeometry relative="1" as="geometry" />
        </mxCell>
        <mxCell id="pV1WfuwIaBETCZBWaG9R-8" value="&lt;b&gt;Initialize&lt;/b&gt; : &lt;b&gt;i&lt;/b&gt;,&lt;b&gt; j&lt;/b&gt;,&amp;nbsp;&lt;b&gt;count&lt;/b&gt;, all equal to 0" style="rounded=0;whiteSpace=wrap;html=1;fillColor=#dae8fc;strokeColor=#6c8ebf;" vertex="1" parent="1">
          <mxGeometry x="-60" y="290" width="120" height="60" as="geometry" />
        </mxCell>
        <mxCell id="pV1WfuwIaBETCZBWaG9R-26" style="edgeStyle=orthogonalEdgeStyle;rounded=0;orthogonalLoop=1;jettySize=auto;html=1;exitX=0.5;exitY=1;exitDx=0;exitDy=0;entryX=0.5;entryY=0;entryDx=0;entryDy=0;" edge="1" parent="1" source="pV1WfuwIaBETCZBWaG9R-9" target="pV1WfuwIaBETCZBWaG9R-15">
          <mxGeometry relative="1" as="geometry" />
        </mxCell>
        <mxCell id="pV1WfuwIaBETCZBWaG9R-9" value="Is format NULL ?" style="rhombus;whiteSpace=wrap;html=1;fillColor=#d5e8d4;strokeColor=#82b366;" vertex="1" parent="1">
          <mxGeometry x="-60" y="520" width="120" height="105.5" as="geometry" />
        </mxCell>
        <mxCell id="pV1WfuwIaBETCZBWaG9R-25" style="edgeStyle=orthogonalEdgeStyle;rounded=0;orthogonalLoop=1;jettySize=auto;html=1;entryX=0.5;entryY=0;entryDx=0;entryDy=0;entryPerimeter=0;" edge="1" parent="1" source="pV1WfuwIaBETCZBWaG9R-10" target="pV1WfuwIaBETCZBWaG9R-23">
          <mxGeometry relative="1" as="geometry" />
        </mxCell>
        <mxCell id="pV1WfuwIaBETCZBWaG9R-10" value="&lt;b&gt;Return&lt;/b&gt; (-1)" style="rounded=0;whiteSpace=wrap;html=1;fillColor=#dae8fc;strokeColor=#6c8ebf;" vertex="1" parent="1">
          <mxGeometry x="280" y="542.75" width="120" height="60" as="geometry" />
        </mxCell>
        <mxCell id="pV1WfuwIaBETCZBWaG9R-11" value="" style="endArrow=classic;html=1;rounded=0;exitX=1;exitY=0.5;exitDx=0;exitDy=0;entryX=0;entryY=0.5;entryDx=0;entryDy=0;" edge="1" parent="1" source="pV1WfuwIaBETCZBWaG9R-9" target="pV1WfuwIaBETCZBWaG9R-10">
          <mxGeometry width="50" height="50" relative="1" as="geometry">
            <mxPoint x="60" y="575" as="sourcePoint" />
            <mxPoint x="140" y="573" as="targetPoint" />
            <Array as="points" />
          </mxGeometry>
        </mxCell>
        <mxCell id="pV1WfuwIaBETCZBWaG9R-13" value="Yes" style="text;html=1;align=center;verticalAlign=middle;resizable=0;points=[];autosize=1;strokeColor=none;fillColor=none;" vertex="1" parent="1">
          <mxGeometry x="150" y="550" width="40" height="30" as="geometry" />
        </mxCell>
        <mxCell id="pV1WfuwIaBETCZBWaG9R-17" value="" style="edgeStyle=orthogonalEdgeStyle;rounded=0;orthogonalLoop=1;jettySize=auto;html=1;" edge="1" parent="1" source="pV1WfuwIaBETCZBWaG9R-15" target="pV1WfuwIaBETCZBWaG9R-16">
          <mxGeometry relative="1" as="geometry" />
        </mxCell>
        <mxCell id="pV1WfuwIaBETCZBWaG9R-37" style="edgeStyle=orthogonalEdgeStyle;rounded=0;orthogonalLoop=1;jettySize=auto;html=1;entryX=0.5;entryY=0;entryDx=0;entryDy=0;" edge="1" parent="1" source="pV1WfuwIaBETCZBWaG9R-15" target="pV1WfuwIaBETCZBWaG9R-41">
          <mxGeometry relative="1" as="geometry">
            <mxPoint y="850" as="targetPoint" />
          </mxGeometry>
        </mxCell>
        <mxCell id="pV1WfuwIaBETCZBWaG9R-15" value="Is&lt;br&gt;format[i] != &#39;\0&#39; ?&lt;br&gt;&amp;nbsp; &amp;nbsp;" style="rhombus;whiteSpace=wrap;html=1;fillColor=#d5e8d4;strokeColor=#82b366;" vertex="1" parent="1">
          <mxGeometry x="-60" y="690" width="120" height="105.5" as="geometry" />
        </mxCell>
        <mxCell id="pV1WfuwIaBETCZBWaG9R-20" value="" style="edgeStyle=orthogonalEdgeStyle;rounded=0;orthogonalLoop=1;jettySize=auto;html=1;" edge="1" parent="1" source="pV1WfuwIaBETCZBWaG9R-16" target="pV1WfuwIaBETCZBWaG9R-19">
          <mxGeometry relative="1" as="geometry" />
        </mxCell>
        <mxCell id="pV1WfuwIaBETCZBWaG9R-16" value="&lt;b&gt;va_end(ap)&lt;/b&gt;" style="whiteSpace=wrap;html=1;fillColor=#dae8fc;strokeColor=#6c8ebf;" vertex="1" parent="1">
          <mxGeometry x="160" y="712.75" width="120" height="60" as="geometry" />
        </mxCell>
        <mxCell id="pV1WfuwIaBETCZBWaG9R-18" value="No" style="text;html=1;align=center;verticalAlign=middle;resizable=0;points=[];autosize=1;strokeColor=none;fillColor=none;" vertex="1" parent="1">
          <mxGeometry x="90" y="720" width="40" height="30" as="geometry" />
        </mxCell>
        <mxCell id="pV1WfuwIaBETCZBWaG9R-22" value="" style="edgeStyle=orthogonalEdgeStyle;rounded=0;orthogonalLoop=1;jettySize=auto;html=1;entryX=0;entryY=0.5;entryDx=0;entryDy=0;entryPerimeter=0;" edge="1" parent="1" source="pV1WfuwIaBETCZBWaG9R-19" target="pV1WfuwIaBETCZBWaG9R-23">
          <mxGeometry relative="1" as="geometry">
            <mxPoint x="220" y="1060" as="targetPoint" />
            <Array as="points">
              <mxPoint x="220" y="1050" />
            </Array>
          </mxGeometry>
        </mxCell>
        <mxCell id="pV1WfuwIaBETCZBWaG9R-19" value="&lt;b&gt;Return&lt;/b&gt; (count)" style="whiteSpace=wrap;html=1;fillColor=#dae8fc;strokeColor=#6c8ebf;" vertex="1" parent="1">
          <mxGeometry x="160" y="852.75" width="120" height="60" as="geometry" />
        </mxCell>
        <mxCell id="pV1WfuwIaBETCZBWaG9R-23" value="&lt;b&gt;End&lt;/b&gt;" style="strokeWidth=2;html=1;shape=mxgraph.flowchart.start_1;whiteSpace=wrap;fillColor=#f8cecc;strokeColor=#b85450;" vertex="1" parent="1">
          <mxGeometry x="290" y="1020" width="100" height="60" as="geometry" />
        </mxCell>
        <mxCell id="pV1WfuwIaBETCZBWaG9R-27" value="No" style="text;html=1;align=center;verticalAlign=middle;resizable=0;points=[];autosize=1;strokeColor=none;fillColor=none;" vertex="1" parent="1">
          <mxGeometry x="-6" y="640" width="40" height="30" as="geometry" />
        </mxCell>
        <mxCell id="pV1WfuwIaBETCZBWaG9R-32" value="" style="endArrow=none;dashed=1;html=1;dashPattern=1 3;strokeWidth=2;rounded=0;entryX=0.167;entryY=0.284;entryDx=0;entryDy=0;entryPerimeter=0;" edge="1" parent="1" target="pV1WfuwIaBETCZBWaG9R-15">
          <mxGeometry width="50" height="50" relative="1" as="geometry">
            <mxPoint x="-130" y="720" as="sourcePoint" />
            <mxPoint x="-60" y="745.5" as="targetPoint" />
            <Array as="points">
              <mxPoint x="-110" y="720" />
              <mxPoint x="-60" y="720" />
            </Array>
          </mxGeometry>
        </mxCell>
        <mxCell id="pV1WfuwIaBETCZBWaG9R-35" value="" style="endArrow=none;dashed=1;html=1;dashPattern=1 3;strokeWidth=2;rounded=0;entryX=0.839;entryY=-0.008;entryDx=0;entryDy=0;entryPerimeter=0;" edge="1" parent="1" target="pV1WfuwIaBETCZBWaG9R-36">
          <mxGeometry width="50" height="50" relative="1" as="geometry">
            <mxPoint x="-147" y="736" as="sourcePoint" />
            <mxPoint x="-150" y="690" as="targetPoint" />
            <Array as="points">
              <mxPoint x="-130" y="736" />
              <mxPoint x="-130" y="704" />
            </Array>
          </mxGeometry>
        </mxCell>
        <mxCell id="pV1WfuwIaBETCZBWaG9R-36" value="&lt;b&gt;For&lt;/b&gt; loop condition" style="text;html=1;align=center;verticalAlign=middle;resizable=0;points=[];autosize=1;strokeColor=none;fillColor=none;" vertex="1" parent="1">
          <mxGeometry x="-250" y="700" width="120" height="30" as="geometry" />
        </mxCell>
        <mxCell id="pV1WfuwIaBETCZBWaG9R-40" value="Yes" style="text;html=1;align=center;verticalAlign=middle;resizable=0;points=[];autosize=1;strokeColor=none;fillColor=none;" vertex="1" parent="1">
          <mxGeometry x="-6" y="810" width="40" height="30" as="geometry" />
        </mxCell>
        <mxCell id="pV1WfuwIaBETCZBWaG9R-42" style="edgeStyle=orthogonalEdgeStyle;rounded=0;orthogonalLoop=1;jettySize=auto;html=1;exitX=0;exitY=0.5;exitDx=0;exitDy=0;" edge="1" parent="1" source="pV1WfuwIaBETCZBWaG9R-41">
          <mxGeometry relative="1" as="geometry">
            <mxPoint x="-180" y="1030" as="targetPoint" />
            <Array as="points">
              <mxPoint x="-60" y="1100" />
              <mxPoint x="-180" y="1100" />
            </Array>
          </mxGeometry>
        </mxCell>
        <mxCell id="pV1WfuwIaBETCZBWaG9R-68" style="edgeStyle=orthogonalEdgeStyle;rounded=0;orthogonalLoop=1;jettySize=auto;html=1;" edge="1" parent="1" source="pV1WfuwIaBETCZBWaG9R-41" target="pV1WfuwIaBETCZBWaG9R-45">
          <mxGeometry relative="1" as="geometry" />
        </mxCell>
        <mxCell id="pV1WfuwIaBETCZBWaG9R-41" value="Is&lt;br&gt;&lt;b&gt;format[i]&lt;/b&gt; an&lt;br&gt;existing&lt;br&gt;specifier&lt;br&gt;&amp;nbsp;?" style="rhombus;whiteSpace=wrap;html=1;fillColor=#d5e8d4;strokeColor=#82b366;" vertex="1" parent="1">
          <mxGeometry x="-60" y="1050" width="120" height="105.5" as="geometry" />
        </mxCell>
        <mxCell id="pV1WfuwIaBETCZBWaG9R-48" value="" style="edgeStyle=orthogonalEdgeStyle;rounded=0;orthogonalLoop=1;jettySize=auto;html=1;" edge="1" parent="1" source="pV1WfuwIaBETCZBWaG9R-45" target="pV1WfuwIaBETCZBWaG9R-47">
          <mxGeometry relative="1" as="geometry" />
        </mxCell>
        <mxCell id="pV1WfuwIaBETCZBWaG9R-45" value="Call the associated&lt;br&gt;function to &lt;b&gt;write&lt;/b&gt; to&lt;br&gt;&lt;b&gt;stdout&lt;/b&gt;" style="whiteSpace=wrap;html=1;fillColor=#dae8fc;strokeColor=#6c8ebf;" vertex="1" parent="1">
          <mxGeometry x="-60" y="1260" width="120" height="60" as="geometry" />
        </mxCell>
        <mxCell id="pV1WfuwIaBETCZBWaG9R-60" value="" style="edgeStyle=orthogonalEdgeStyle;rounded=0;orthogonalLoop=1;jettySize=auto;html=1;" edge="1" parent="1" source="pV1WfuwIaBETCZBWaG9R-47" target="pV1WfuwIaBETCZBWaG9R-59">
          <mxGeometry relative="1" as="geometry" />
        </mxCell>
        <mxCell id="pV1WfuwIaBETCZBWaG9R-47" value="Increment &lt;b&gt;count&lt;/b&gt; by the number of characters written" style="whiteSpace=wrap;html=1;fillColor=#dae8fc;strokeColor=#6c8ebf;" vertex="1" parent="1">
          <mxGeometry x="-60" y="1370" width="120" height="60" as="geometry" />
        </mxCell>
        <mxCell id="pV1WfuwIaBETCZBWaG9R-43" value="No" style="text;html=1;align=center;verticalAlign=middle;resizable=0;points=[];autosize=1;strokeColor=none;fillColor=none;" vertex="1" parent="1">
          <mxGeometry x="-140" y="1070" width="40" height="30" as="geometry" />
        </mxCell>
        <mxCell id="pV1WfuwIaBETCZBWaG9R-51" value="" style="endArrow=none;dashed=1;html=1;dashPattern=1 3;strokeWidth=2;rounded=0;exitX=1;exitY=1;exitDx=0;exitDy=0;" edge="1" parent="1" source="pV1WfuwIaBETCZBWaG9R-41">
          <mxGeometry width="50" height="50" relative="1" as="geometry">
            <mxPoint x="40" y="1135.5" as="sourcePoint" />
            <mxPoint x="100" y="1170" as="targetPoint" />
            <Array as="points">
              <mxPoint x="30" y="1135.5" />
              <mxPoint x="60" y="1170" />
            </Array>
          </mxGeometry>
        </mxCell>
        <mxCell id="pV1WfuwIaBETCZBWaG9R-53" value="&lt;b&gt;For&lt;/b&gt; loop condition" style="text;html=1;align=center;verticalAlign=middle;resizable=0;points=[];autosize=1;strokeColor=none;fillColor=none;" vertex="1" parent="1">
          <mxGeometry x="100" y="1155.5" width="120" height="30" as="geometry" />
        </mxCell>
        <mxCell id="pV1WfuwIaBETCZBWaG9R-54" value="" style="endArrow=none;dashed=1;html=1;dashPattern=1 3;strokeWidth=2;rounded=0;" edge="1" parent="1">
          <mxGeometry width="50" height="50" relative="1" as="geometry">
            <mxPoint x="121.5" y="1154.5" as="sourcePoint" />
            <mxPoint x="121.5" y="1186.5" as="targetPoint" />
            <Array as="points">
              <mxPoint x="98.5" y="1154.5" />
              <mxPoint x="98.5" y="1186.5" />
            </Array>
          </mxGeometry>
        </mxCell>
        <mxCell id="pV1WfuwIaBETCZBWaG9R-57" style="edgeStyle=orthogonalEdgeStyle;rounded=0;orthogonalLoop=1;jettySize=auto;html=1;entryX=0;entryY=0.5;entryDx=0;entryDy=0;exitX=0.5;exitY=0;exitDx=0;exitDy=0;" edge="1" parent="1" source="pV1WfuwIaBETCZBWaG9R-61" target="pV1WfuwIaBETCZBWaG9R-15">
          <mxGeometry relative="1" as="geometry">
            <mxPoint x="-180" y="740" as="targetPoint" />
            <mxPoint x="-180" y="800" as="sourcePoint" />
            <Array as="points">
              <mxPoint x="-180" y="743" />
            </Array>
          </mxGeometry>
        </mxCell>
        <mxCell id="pV1WfuwIaBETCZBWaG9R-62" value="" style="edgeStyle=orthogonalEdgeStyle;rounded=0;orthogonalLoop=1;jettySize=auto;html=1;" edge="1" parent="1" source="pV1WfuwIaBETCZBWaG9R-56" target="pV1WfuwIaBETCZBWaG9R-61">
          <mxGeometry relative="1" as="geometry" />
        </mxCell>
        <mxCell id="pV1WfuwIaBETCZBWaG9R-56" value="Write &lt;b&gt;format[i]&lt;/b&gt; to stdout" style="rounded=0;whiteSpace=wrap;html=1;fillColor=#dae8fc;strokeColor=#6c8ebf;" vertex="1" parent="1">
          <mxGeometry x="-240" y="970" width="120" height="60" as="geometry" />
        </mxCell>
        <mxCell id="pV1WfuwIaBETCZBWaG9R-69" style="edgeStyle=orthogonalEdgeStyle;rounded=0;orthogonalLoop=1;jettySize=auto;html=1;" edge="1" parent="1" source="pV1WfuwIaBETCZBWaG9R-59" target="pV1WfuwIaBETCZBWaG9R-70">
          <mxGeometry relative="1" as="geometry">
            <mxPoint x="-380" y="890" as="targetPoint" />
          </mxGeometry>
        </mxCell>
        <mxCell id="pV1WfuwIaBETCZBWaG9R-59" value="Increment &lt;b&gt;i&lt;/b&gt; by one" style="whiteSpace=wrap;html=1;fillColor=#dae8fc;strokeColor=#6c8ebf;" vertex="1" parent="1">
          <mxGeometry x="-60" y="1480" width="120" height="60" as="geometry" />
        </mxCell>
        <mxCell id="pV1WfuwIaBETCZBWaG9R-61" value="Increment &lt;b&gt;count&lt;/b&gt; and&amp;nbsp;&lt;b&gt;i&lt;/b&gt; by one" style="whiteSpace=wrap;html=1;fillColor=#dae8fc;strokeColor=#6c8ebf;rounded=0;" vertex="1" parent="1">
          <mxGeometry x="-240" y="830" width="120" height="60" as="geometry" />
        </mxCell>
        <mxCell id="pV1WfuwIaBETCZBWaG9R-66" value="Yes" style="text;html=1;align=center;verticalAlign=middle;resizable=0;points=[];autosize=1;strokeColor=none;fillColor=none;" vertex="1" parent="1">
          <mxGeometry x="-46" y="1189" width="40" height="30" as="geometry" />
        </mxCell>
        <mxCell id="pV1WfuwIaBETCZBWaG9R-71" style="edgeStyle=orthogonalEdgeStyle;rounded=0;orthogonalLoop=1;jettySize=auto;html=1;" edge="1" parent="1" source="pV1WfuwIaBETCZBWaG9R-70">
          <mxGeometry relative="1" as="geometry">
            <mxPoint x="-180" y="740" as="targetPoint" />
            <Array as="points">
              <mxPoint x="-380" y="740" />
            </Array>
          </mxGeometry>
        </mxCell>
        <mxCell id="pV1WfuwIaBETCZBWaG9R-70" value="Increment &lt;b&gt;i&lt;/b&gt; by one" style="rounded=0;whiteSpace=wrap;html=1;fillColor=#dae8fc;strokeColor=#6c8ebf;" vertex="1" parent="1">
          <mxGeometry x="-440" y="830" width="120" height="60" as="geometry" />
        </mxCell>
      </root>
    </mxGraphModel>
  </diagram>
</mxfile>
